:SAMPLES-PER-SECOND 24
:FULLY-SPECIFIED
:DEGREES
157
root  0.0575373 40.2421 35.3976 -5.55826 72.5668 -7.83282
RightUpLeg  -9.15462 6.24239 -9.22048
RightLeg  17.3624 5.58475 1.62285
RightFoot  -2.03129 -0.867662 10.4967
RightToes  -2.08645e-008 3.77894e-005 6.81332e-007
Spine  0.438255 -2.08503 -1.0347
Spine1  3.38058 -3.01048 4.04478
HEad  -32.5279 -36.465 13.0462
LeftShoulder1  7.83459 -13.7569 -39.2266
LeftArm  3.21651 20.9512 -28.8928
LeftForeArm  157.19 -75.4485 -140.891
LeftHand  -0.390139 -2.77875 5.76868
RightShoulder  4.10044 6.68832 34.3409
RightArm  21.1996 -8.11271 37.9701
RightForeArm  125.625 79.2004 116.653
RightHand  -0.336435 7.93939 -3.29294
LeftUpLeg  -16.373 1.47467 11.0302
LeftLeg  35.8443 -2.87615 -1.83183
LeftFoot  -8.57143 0.307639 -10.6748
LeftToes  1.24767e-006 1.47042e-008 1.32732e-009
158
root  0.4012 40.4751 34.1239 -0.199402 62.881 -3.63326
RightUpLeg  -14.503 10.2079 -11.9259
RightLeg  17.9146 3.91432 0.925086
RightFoot  3.00631 -1.35606 10.9469
RightToes  -2.08645e-008 3.77894e-005 6.81332e-007
Spine  1.05208 -0.985775 0.18395
Spine1  1.52295 -1.64633 3.70322
HEad  -31.2874 -31.5468 11.1855
LeftShoulder1  7.6121 -13.6588 -38.2364
LeftArm  7.90797 17.5939 -26.5608
LeftForeArm  160.985 -72.9074 -147.334
LeftHand  -0.409575 -3.18059 5.78979
RightShoulder  4.09364 6.76326 33.9826
RightArm  22.1221 -11.3534 35.981
RightForeArm  139.401 77.2503 130.98
RightHand  -0.232769 7.83779 -2.41107
LeftUpLeg  -11.5836 -12.2817 11.2872
LeftLeg  29.102 -9.42859 -5.34431
LeftFoot  -8.87785 0.387394 -15.4194
LeftToes  1.24767e-006 1.47042e-008 1.32732e-009
159
root  0.679901 40.0973 32.8746 2.33102 52.3897 -1.6662
RightUpLeg  -20.3577 11.5198 -12.5498
RightLeg  21.6794 -6.03365 -2.88928
RightFoot  4.77536 -1.0482 7.63999
RightToes  -2.08645e-008 3.77894e-005 6.81332e-007
Spine  1.78558 -0.0677705 1.53901
Spine1  1.14843 -0.228643 1.54733
HEad  -31.2769 -25.6357 10.6013
LeftShoulder1  7.06399 -13.2328 -36.1554
LeftArm  10.1274 13.5522 -23.7934
LeftForeArm  161.322 -68.7389 -153.898
LeftHand  -0.392131 -2.76421 5.80905
RightShoulder  4.09073 6.87629 33.524
RightArm  21.4808 -11.2983 34.4568
RightForeArm  143.894 75.7767 137.23
RightHand  -0.213186 8.18925 -2.19908
LeftUpLeg  -8.23459 -19.4469 8.62671
LeftLeg  29.4749 -13.4396 -7.77854
LeftFoot  -8.81883 0.31926 -12.5175
LeftToes  1.24767e-006 1.47042e-008 1.32732e-009
160
root  0.827441 39.415 31.6862 3.84259 44.2509 0.740097
RightUpLeg  -22.7443 9.44709 -12.2397
RightLeg  23.0928 -14.6942 -6.97005
RightFoot  4.50804 -0.411102 3.17371
RightToes  -2.08645e-008 3.77894e-005 6.81332e-007
Spine  3.16787 0.0593662 -0.685245
Spine1  2.00703 -0.125318 1.56702
HEad  -33.2649 -20.1022 11.1158
LeftShoulder1  6.44152 -12.5355 -34.1516
LeftArm  8.59313 7.03216 -20.5711
LeftForeArm  162.853 -65.0093 -158.184
LeftHand  -0.358332 -2.3158 5.60435
RightShoulder  3.88915 6.67439 32.3244
RightArm  18.1809 -9.06721 34.6326
RightForeArm  142.6 75.7854 136.929
RightHand  -0.298365 8.42629 -2.88302
LeftUpLeg  -5.65564 -16.2735 4.2044
LeftLeg  30.2905 -12.6986 -7.56795
LeftFoot  -11.9479 0.0404604 -5.85723
LeftToes  1.24767e-006 1.47042e-008 1.32732e-009
161
root  0.989663 38.8545 30.5143 5.07072 38.709 2.63411
RightUpLeg  -23.1753 6.23088 -13.0746
RightLeg  19.0586 -13.7755 -5.63419
RightFoot  4.97568 -0.299714 2.3132
RightToes  -2.08645e-008 3.77894e-005 6.81332e-007
Spine  2.90676 -0.445603 -4.67103
Spine1  5.08548 -1.33039 4.19296
HEad  -36.6999 -15.9819 11.4614
LeftShoulder1  6.1865 -12.1082 -33.6254
LeftArm  4.21318 -0.324138 -17.1547
LeftForeArm  166.888 -64.2045 -159.342
LeftHand  -0.454492 -2.31706 7.04428
RightShoulder  3.74488 6.41666 31.863
RightArm  13.4728 -6.21276 34.8497
RightForeArm  138.376 77.2619 130.698
RightHand  -0.53161 8.21927 -4.89817
LeftUpLeg  -5.19218 -9.95522 0.517853
LeftLeg  29.2665 -9.81754 -5.56129
LeftFoot  -16.6336 0.0123101 -1.73934
LeftToes  1.24767e-006 1.47042e-008 1.32732e-009
162
root  1.40539 38.7558 29.592 5.545 32.7163 1.57246
RightUpLeg  -23.445 0.466005 -11.1488
RightLeg  11.4957 -2.00361 -2.52406
RightFoot  6.43318 -0.842167 5.63733
RightToes  -2.08645e-008 3.77894e-005 6.81332e-007
Spine  1.33788 -1.05158 -5.0224
Spine1  6.73002 -2.37619 5.90326
HEad  -37.912 -12.7019 10.1586
LeftShoulder1  6.26184 -12.1425 -34.0151
LeftArm  1.91801 -0.536389 -16.6498
LeftForeArm  167.683 -64.5552 -159.117
LeftHand  -0.578986 -1.68787 9.70028
RightShoulder  3.8458 6.49344 32.5821
RightArm  10.0092 -7.33916 33.906
RightForeArm  137.013 77.7277 128.432
RightHand  -0.602935 8.56223 -5.38736
LeftUpLeg  -5.26482 -8.20004 -1.21253
LeftLeg  26.825 -5.53656 -2.6953
LeftFoot  -17.7424 0.0557414 -0.830023
LeftToes  1.24767e-006 1.47042e-008 1.32732e-009
163
root  1.92431 39.3886 29.191 5.37248 24.768 -1.39551
RightUpLeg  -22.1979 -3.04437 -6.92223
RightLeg  4.07173 5.07165 -1.19896
RightFoot  6.21242 -1.40594 9.38467
RightToes  -2.08645e-008 3.77894e-005 6.81332e-007
Spine  -0.826075 -1.12863 -2.93568
Spine1  6.46955 -2.71072 7.28042
HEad  -35.4144 -8.75995 8.32119
LeftShoulder1  6.21909 -12.111 -33.8239
LeftArm  4.10449 7.23886 -21.2556
LeftForeArm  163.551 -63.6904 -159.436
LeftHand  -0.596668 -0.677092 11.5373
RightShoulder  3.83861 6.51735 32.4204
RightArm  9.46168 -13.0883 32.8887
RightForeArm  144.048 75.4533 138.198
RightHand  -0.804228 8.35409 -7.1484
LeftUpLeg  -3.45935 -8.45765 -1.17683
LeftLeg  21.4686 1.90274 1.07791
LeftFoot  -14.4779 0.0246136 -2.07454
LeftToes  1.24767e-006 1.47042e-008 1.32732e-009
164
root  2.21607 40.6804 29.0856 5.70203 18.0048 -2.78575
RightUpLeg  -19.3351 -2.46259 -4.93615
RightLeg  1.202 0.519638 -0.40744
RightFoot  4.82956 -1.23224 8.89089
RightToes  -2.08645e-008 3.77894e-005 6.81332e-007
Spine  -2.47421 -1.38528 -3.5243
Spine1  5.7125 -3.61102 10.4286
HEad  -31.1056 -4.78797 7.52395
LeftShoulder1  6.1255 -11.9762 -33.5692
LeftArm  7.7922 16.0807 -26.6288
LeftForeArm  162.372 -63.0588 -159.846
LeftHand  -0.624154 -1.23051 11.095
RightShoulder  3.70037 6.32343 31.767
RightArm  10.9737 -19.8909 31.7044
RightForeArm  152.269 72.046 147.593
RightHand  -0.684367 8.66105 -6.02036
LeftUpLeg  -1.54353 -1.17582 -0.198781
LeftLeg  14.7461 0.378039 0.931731
LeftFoot  -5.95925 0.247409 -4.50359
LeftToes  1.24767e-006 1.47042e-008 1.32732e-009
165
root  2.3622 42.0526 28.8852 5.98676 13.0363 -2.96248
RightUpLeg  -17.5073 -1.85435 -4.22033
RightLeg  5.63998 -5.30405 -1.32259
RightFoot  5.79695 -0.752734 5.27166
RightToes  -2.08645e-008 3.77894e-005 6.81332e-007
Spine  -3.36017 -2.08171 -2.81884
Spine1  5.91674 -4.47498 10.5696
HEad  -27.6559 -1.82038 7.23567
LeftShoulder1  6.15064 -12.001 -33.6673
LeftArm  9.62606 21.3722 -29.451
LeftForeArm  165.874 -63.7112 -159.657
LeftHand  -0.46075 -2.42342 7.03881
RightShoulder  3.72355 6.32297 32.0057
RightArm  12.0449 -25.336 30.7626
RightForeArm  156.951 70.0519 151.558
RightHand  -0.55098 9.21786 -4.75572
LeftUpLeg  -2.30285 5.5044 1.67464
LeftLeg  13.8056 -5.397 -2.17721
LeftFoot  5.96423 1.38393 -9.31051
LeftToes  1.24767e-006 1.47042e-008 1.32732e-009
166
root  2.56609 42.7461 28.4916 5.33904 8.25468 -3.83173
RightUpLeg  -16.9614 -1.8646 -3.74664
RightLeg  15.2444 -8.64658 -3.04075
RightFoot  8.20817 -0.61346 3.86635
RightToes  -2.08645e-008 3.77894e-005 6.81332e-007
Spine  -1.85306 -2.31789 1.99815
Spine1  5.53823 -4.22165 7.52162
HEad  -25.9307 0.343029 6.43583
LeftShoulder1  6.49357 -12.4429 -34.6998
LeftArm  9.96728 22.7069 -30.1356
LeftForeArm  166.585 -65.1644 -158.437
LeftHand  -0.255516 -3.0022 3.77262
RightShoulder  3.81461 6.50045 32.245
RightArm  12.2824 -29.4604 29.7814
RightForeArm  157.388 68.6934 153.474
RightHand  -0.570295 8.77344 -5.07729
LeftUpLeg  -5.09943 6.43072 2.87629
LeftLeg  18.0882 -6.46104 -2.08507
LeftFoot  11.8252 2.33633 -11.8132
LeftToes  1.24767e-006 1.47042e-008 1.32732e-009
167
root  2.75259 42.8064 28.1787 4.73805 2.46284 -4.26672
RightUpLeg  -16.3266 -3.30202 -3.77057
RightLeg  24.3351 -10.4761 -5.34139
RightFoot  9.36393 -0.302745 2.01304
RightToes  -2.08645e-008 3.77894e-005 6.81332e-007
Spine  -1.13095 -1.76936 4.68607
Spine1  6.81229 -3.51453 6.39434
HEad  -25.6194 2.47413 5.59267
LeftShoulder1  6.90093 -12.9039 -36.0149
LeftArm  11.035 20.4437 -30.4985
LeftForeArm  164.315 -66.66 -156.699
LeftHand  -0.30879 -3.12232 4.44554
RightShoulder  3.7864 6.5617 31.7279
RightArm  12.1533 -31.081 28.2262
RightForeArm  157.019 67.3913 155.019
RightHand  -0.345297 7.38691 -3.45073
LeftUpLeg  -6.16247 -0.737229 3.32123
LeftLeg  17.2422 -1.83455 -0.394791
LeftFoot  10.2018 1.67848 -9.11332
LeftToes  1.24767e-006 1.47042e-008 1.32732e-009
168
root  2.81081 42.3415 28.0223 5.27882 -5.05406 -3.65596
RightUpLeg  -17.0363 -1.75005 -4.9762
RightLeg  33.0615 -12.1096 -8.60492
RightFoot  9.49108 0.622715 -3.02976
RightToes  -2.08645e-008 3.77894e-005 6.81332e-007
Spine  -2.10008 -0.669006 4.31867
Spine1  8.56837 -2.38401 6.08929
HEad  -25.4812 5.39142 5.00075
LeftShoulder1  6.84263 -12.823 -35.8709
LeftArm  11.539 17.7241 -31.4073
LeftForeArm  163.955 -66.9701 -156.33
LeftHand  -0.341897 -2.7818 5.08351
RightShoulder  3.73518 6.49609 31.4608
RightArm  12.2556 -29.9211 26.4882
RightForeArm  157.692 67.3914 155.104
RightHand  -0.443976 7.26716 -4.42221
LeftUpLeg  -5.91323 -6.94632 3.35923
LeftLeg  12.3274 -3.94063 0.373305
LeftFoot  6.9414 1.0961 -7.06961
LeftToes  1.24767e-006 1.47042e-008 1.32732e-009
169
root  2.82272 41.199 27.7755 5.69968 -13.3255 -2.52235
RightUpLeg  -17.6952 1.1059 -7.07579
RightLeg  39.8689 -12.0944 -10.8756
RightFoot  7.59381 0.378375 -1.87793
RightToes  -2.08645e-008 3.77894e-005 6.81332e-007
Spine  -1.10696 0.0245429 3.01193
Spine1  7.77065 -1.31289 4.9902
HEad  -25.5194 9.31774 3.72797
LeftShoulder1  6.74957 -12.6557 -35.7338
LeftArm  9.40205 15.8651 -30.7806
LeftForeArm  164.563 -65.95 -157.461
LeftHand  -0.293693 -2.55646 4.50722
RightShoulder  3.74345 6.46467 31.6632
RightArm  12.6318 -26.2237 25.4916
RightForeArm  155.057 69.5501 151.98
RightHand  -0.588392 7.60126 -5.60959
LeftUpLeg  -7.33756 -9.77948 3.10029
LeftLeg  14.6375 -6.4231 -0.703399
LeftFoot  -0.432147 0.659263 -6.76432
LeftToes  1.24767e-006 1.47042e-008 1.32732e-009
170
root  2.80395 39.7659 27.4402 4.82176 -20.394 -0.282318
RightUpLeg  -15.5877 1.77653 -10.1807
RightLeg  40.1975 -11.8266 -10.7593
RightFoot  -1.22734 -0.657895 8.49803
RightToes  -2.08645e-008 3.77894e-005 6.81332e-007
Spine  0.0792648 -0.0773445 -0.111358
Spine1  8.07635 -1.29824 4.37602
HEad  -27.0346 13.0644 1.56698
LeftShoulder1  6.97885 -12.8026 -36.7355
LeftArm  5.94369 11.8814 -27.7343
LeftForeArm  165.438 -65.5379 -157.966
LeftHand  -0.439988 -2.33912 6.80258
RightShoulder  3.81498 6.52302 32.1627
RightArm  11.307 -20.8433 26.6304
RightForeArm  149.952 72.8766 145.574
RightHand  -0.641753 7.29976 -6.19785
LeftUpLeg  -9.39257 -7.21274 0.24557
LeftLeg  21.9451 -2.13019 -0.622121
LeftFoot  -9.74857 0.128156 -3.79728
LeftToes  1.24767e-006 1.47042e-008 1.32732e-009
171
root  2.69054 38.7365 27.2382 4.29849 -26.8851 1.80403
RightUpLeg  -13.3004 2.50191 -12.822
RightLeg  34.4183 -9.97971 -7.52892
RightFoot  -12.8125 0.0973606 14.796
RightToes  -2.08645e-008 3.77894e-005 6.81332e-007
Spine  -2.12607 -0.0478011 -2.94617
Spine1  11.1364 -1.46812 4.56012
HEad  -29.0581 15.5425 -1.67542
LeftShoulder1  7.47348 -13.2413 -38.5001
LeftArm  2.75849 7.70129 -24.8545
LeftForeArm  166.912 -66.5677 -157.093
LeftHand  -0.587093 -1.62585 9.89884
RightShoulder  3.94297 6.57841 33.2252
RightArm  8.07179 -18.6297 29.0305
RightForeArm  149.988 74.7394 141.361
RightHand  -0.576139 7.54586 -5.51922
LeftUpLeg  -10.7341 -5.64891 -3.11477
LeftLeg  25.7795 6.03556 3.53461
LeftFoot  -15.7004 0.0129519 -2.01447
LeftToes  1.24767e-006 1.47042e-008 1.32732e-009
